<?xml version="1.0" encoding="UTF-8"?>
<svg id="SVGDoc" width="353" height="52" xmlns="http://www.w3.org/2000/svg" version="1.1" xmlns:xlink="http://www.w3.org/1999/xlink" xmlns:avocode="https://avocode.com/" viewBox="0 0 353 52"><defs></defs><desc>Generated with Avocode.</desc><g><g><title>Gruppe 6</title><g><title>Pfad 1</title><path d="M58.8116,32.13344h-2.2007l-0.45514,2.20249h2.20068zM53.5168,47.29829h1.95065l2.24561,-10.59571h-1.95462z" fill="#298043" fill-opacity="1"></path></g><g><title>Gruppe 1</title><g><title>Pfad 2</title><path d="M60.71558,47.29576v0h1.95245v0l1.12297,-5.33755c0.26836,-1.30943 1.45276,-3.9261 3.86252,-3.9261c1.20488,0 1.93018,0.83199 1.93018,1.93233c0,0.22561 -0.04094,0.64339 -0.10237,0.9976l-1.30762,6.33372v0h1.951v0l1.16357,-5.58758c0.12502,-0.60244 0.24823,-1.30942 0.24823,-1.93233c0,-2.24344 -1.47537,-3.32331 -3.52878,-3.32331c-1.84828,0 -2.99138,0.93617 -3.61646,1.93198h-0.04094v0l0.33408,-1.6823v0h-1.82779c-0.08406,0.62112 -0.20908,1.1844 -0.29279,1.61909z" fill="#298043" fill-opacity="1"></path></g><g><title>Pfad 3</title><path d="M83.72295,36.86996c-0.79102,-0.2723 -1.62085,-0.41599 -2.7417,-0.41599c-3.67606,0 -5.77438,3.07364 -5.77438,6.66924c0,2.92635 1.88925,4.42221 4.69455,4.42221c0.68433,0 1.3895,-0.06142 2.0365,-0.25002l0.35062,-1.80697c-0.62292,0.24967 -1.47324,0.47923 -2.14105,0.47923c-1.86874,0 -2.86456,-1.16393 -2.86456,-3.13722c0,-2.57537 1.55731,-4.7987 4.07123,-4.7987c0.54102,0 1.2049,0.14549 1.88925,0.51838z" fill="#298043" fill-opacity="1"></path></g><g><title>Pfad 4</title><path d="M85.73073,47.29576v0h1.95102v0l1.10214,-5.21469c0.27051,-1.30726 1.4567,-3.92395 3.86072,-3.92395c0.14729,0 0.45874,0.06322 0.83344,0.20872l0.43648,-1.72506c-0.37289,-0.14729 -0.70662,-0.18824 -0.89343,-0.18824c-1.85007,0 -2.98956,0.93617 -3.61607,1.93198h-0.03917v0l0.33014,-1.6823v0h-1.826c-0.08405,0.62112 -0.20908,1.1844 -0.28918,1.61909z" fill="#298043" fill-opacity="1"></path></g><g><title>Pfad 5</title><path d="M103.62723,47.11039c-1.01667,0.24643 -2.07605,0.43647 -3.13721,0.43647c-2.57577,0 -4.88278,-1.03891 -4.88278,-4.77822c0,-2.92814 2.05914,-6.31323 5.79666,-6.31323c2.55524,0 3.98932,1.53682 3.98932,4.04897c0,0.70697 -0.08371,1.30762 -0.18643,1.93233h-7.45633c-0.04489,0.22739 -0.06537,0.43648 -0.06537,0.66388c0,2.22332 1.37262,2.86671 3.26187,2.86671c0.97531,0 2.0365,-0.25003 2.98956,-0.64339zM103.379,40.98359c0.03915,-0.31325 0.0614,-0.56292 0.0614,-0.81295c0,-1.24584 -0.77017,-2.13746 -2.24524,-2.13746c-1.59857,0 -2.82397,1.39132 -3.23779,2.95041z" fill="#298043" fill-opacity="1"></path></g><g><title>Pfad 6</title><path d="M120.98485,31.71851v0h-1.95428v0l-1.39346,6.72887v0h-0.03918c-0.60422,-1.37263 -1.97507,-1.99376 -3.40555,-1.99376c-3.61646,0 -5.48517,3.32367 -5.48517,6.64732c0,2.40761 1.37085,4.44412 3.92609,4.44412c1.59824,0 2.88721,-0.45659 3.61646,-1.86874h0.03912c-0.16595,0.53922 -0.2482,1.12119 -0.35275,1.61908h1.82782c0.14551,-1.16212 0.35275,-2.3257 0.60245,-3.5101zM110.78502,42.95544c0,-1.99376 1.2049,-4.92191 3.5101,-4.92191c1.70459,0 2.63898,1.30725 2.63898,2.88503c0,1.99377 -1.12082,5.04874 -3.57336,5.04874c-1.78503,0 -2.57571,-1.3317 -2.57571,-3.01186" fill="#298043" fill-opacity="1"></path></g></g><g><title>Pfad 7</title><path d="M128.12141,32.13344h-2.20245l-0.45514,2.20249h2.20245zM122.82271,47.29829h1.95459l2.24384,-10.59571h-1.95282z" fill="#298043" fill-opacity="1"></path></g><g><title>Gruppe 2</title><g><title>Pfad 8</title><path d="M130.02649,47.29539v0h1.82779v0l0.35242,-1.76637v0h0.04276c0.55792,1.14166 1.30582,2.01425 3.5719,2.01425c3.52844,0 5.33755,-3.17603 5.33755,-7.06117c0,-2.28439 -1.39133,-4.03029 -3.78027,-4.03029c-1.47357,0 -2.70251,0.50006 -3.36462,1.39313h-0.04309v0l1.30762,-6.12643v0h-1.95099v0zM132.9137,43.18285c0,-2.61848 1.51419,-5.15111 3.79892,-5.15111c1.35037,0 2.36884,0.83163 2.36884,2.61668c0,2.63896 -1.30765,5.31888 -3.53058,5.31888c-1.78867,0 -2.63718,-1.35039 -2.63718,-2.78445" fill="#298043" fill-opacity="1"></path></g></g><g><title>Pfad 9</title><path d="M144.38945,47.29588v0h1.9527v0l3.30304,-15.57884v0h-1.95273v0z" fill="#298043" fill-opacity="1"></path></g><g><title>Gruppe 3</title><g><title>Pfad 10</title><path d="M150.07556,51.76077c0.49792,0.10238 0.99762,0.14548 1.47507,0.14548c1.95099,0 2.65796,-0.99615 3.59415,-2.61668l7.22534,-12.58732v0h-2.09473v0l-4.61044,8.45429v0h-0.04453v0l-1.2254,-8.45429v0h-2.0329v0l1.70099,11.17551c-0.80972,1.6392 -1.62088,2.42989 -2.8035,2.45072c-0.35419,0 -0.7066,-0.10454 -0.85031,-0.1886z" fill="#298043" fill-opacity="1"></path></g><g><title>Pfad 11</title><path d="M169.79807,51.65874v0h1.95462v0l1.2681,-5.9418v0h0.03915c0.49969,1.20454 1.6022,1.82961 3.4505,1.82961c3.53235,0 5.33752,-3.17997 5.33752,-7.06512c0,-2.2826 -1.3931,-4.0285 -3.78204,-4.0285c-1.4736,0 -2.98813,0.53922 -3.75833,1.86876h-0.04095v0l0.35062,-1.61872v0h-1.82599c-0.14334,1.16393 -0.35245,2.32571 -0.56116,3.51011zM173.60272,43.18217c0,-2.61668 1.51425,-5.14931 3.80078,-5.14931c1.35037,0 2.367,0.82804 2.367,2.61668c0,2.63717 -1.30942,5.31708 -3.53061,5.31708c-1.78683,0 -2.63718,-1.35037 -2.63718,-2.78445" fill="#298043" fill-opacity="1"></path></g><g><title>Pfad 12</title><path d="M185.10049,47.2958v0h1.95099v0l1.10217,-5.21469c0.27045,-1.30726 1.45667,-3.92395 3.86249,-3.92395c0.14551,0 0.45697,0.06322 0.83203,0.20872l0.43604,-1.72506c-0.37463,-0.14729 -0.70654,-0.18824 -0.89301,-0.18824c-1.8504,0 -2.98993,0.93617 -3.61646,1.93198h-0.03918v0l0.3302,-1.6823v0h-1.82605c-0.08191,0.62112 -0.20868,1.1844 -0.29095,1.61909z" fill="#298043" fill-opacity="1"></path></g><g><title>Pfad 13</title><path d="M202.99806,47.11043c-1.01447,0.24643 -2.07569,0.43647 -3.13721,0.43647c-2.57544,0 -4.88062,-1.03891 -4.88062,-4.77822c0,-2.92814 2.05877,-6.31323 5.79449,-6.31323c2.55707,0 3.98932,1.53682 3.98932,4.04897c0,0.70697 -0.08368,1.30762 -0.18463,1.93233h-7.4599c-0.04132,0.22739 -0.06183,0.43648 -0.06183,0.66388c0,2.22332 1.37085,2.86671 3.26221,2.86671c0.97357,0 2.03656,-0.25003 2.99139,-0.64339zM202.74981,40.98363c0.04315,-0.31325 0.06177,-0.56292 0.06177,-0.81295c0,-1.24584 -0.7666,-2.13746 -2.242,-2.13746c-1.60003,0 -2.82537,1.39132 -3.24139,2.95041z" fill="#298043" fill-opacity="1"></path></g><g><title>Pfad 14</title><path d="M216.59485,36.86894c-0.79065,-0.27051 -1.62085,-0.41601 -2.7417,-0.41601c-3.67609,0 -5.77405,3.07544 -5.77405,6.66961c0,2.92635 1.88922,4.42186 4.69238,4.42186c0.68646,0 1.3913,-0.06143 2.0387,-0.24789l0.35059,-1.80731c-0.62292,0.24823 -1.47357,0.47742 -2.13928,0.47742c-1.87097,0 -2.8667,-1.16177 -2.8667,-3.13506c0,-2.57574 1.55731,-4.7987 4.07159,-4.7987c0.54059,0 1.20453,0.14548 1.88922,0.51838z" fill="#298043" fill-opacity="1"></path></g></g><g><title>Pfad 15</title><path d="M224.0235,32.13344h-2.20251l-0.45514,2.20249h2.20251zM218.7287,47.29829h1.95068l2.24371,-10.59571h-1.95276z" fill="#298043" fill-opacity="1"></path></g><g><title>Pfad 16</title><path d="M233.28077,37.03488c-0.87262,-0.35457 -1.82788,-0.58197 -2.76221,-0.58197c-1.74731,0 -3.98932,0.8726 -3.98932,3.11459c0,2.67991 3.61462,2.95042 3.61462,4.75774c0,1.20488 -1.16394,1.64136 -2.22119,1.64136c-0.85425,0 -1.664,-0.29098 -2.43024,-0.60065l-0.37506,1.68051c0.79071,0.27015 1.41187,0.49791 3.09595,0.49791c1.66003,0 4.008,-0.82984 4.008,-3.38689c0,-2.94682 -3.61432,-3.03088 -3.61432,-4.83605c0,-1.06119 1.12268,-1.28896 1.9751,-1.28896c0.72357,0 1.57599,0.27051 2.117,0.53922z" fill="#298043" fill-opacity="1"></path></g><g><title>Pfad 17</title><path d="M243.82546,47.11038c-1.01667,0.24643 -2.07611,0.43647 -3.13721,0.43647c-2.57575,0 -4.88068,-1.03891 -4.88068,-4.77822c0,-2.92814 2.05878,-6.31323 5.79456,-6.31323c2.55701,0 3.98932,1.53682 3.98932,4.04897c0,0.70697 -0.08368,1.30762 -0.18469,1.93233h-7.46027c-0.04095,0.22739 -0.06323,0.43648 -0.06323,0.66388c0,2.22332 1.37268,2.86671 3.26367,2.86671c0.97388,0 2.03693,-0.25003 2.99176,-0.64339zM243.57722,40.98358c0.04089,-0.31325 0.05963,-0.56292 0.05963,-0.81295c0,-1.24584 -0.7663,-2.13746 -2.24164,-2.13746c-1.59832,0 -2.82367,1.39132 -3.23962,2.95041z" fill="#298043" fill-opacity="1"></path></g><g><title>Pfad 18</title><path d="M57.14186,26.80882v0h6.54637v0l2.37421,-10.6848c1.3687,2.34079 3.20224,3.5622 6.04453,3.5622c6.76265,0 9.85677,-5.72014 9.85677,-11.871c0,-4.20954 -2.37421,-7.73438 -6.97713,-7.73438c-2.33862,0 -4.74838,1.00694 -6.72922,3.41671h-0.07257v0l0.50545,-2.98598v0h-5.9364c-0.07114,0.75548 -0.14369,1.68985 -0.39731,2.80708zM67.2878,10.90933c0,-2.48233 1.83319,-5.86563 4.89211,-5.86563c2.04944,0 3.09412,1.54795 3.09412,3.84959c0,2.91306 -1.83716,5.82827 -4.89211,5.82827c-2.16188,0 -3.09412,-1.90611 -3.09412,-3.81223" fill="#1b465d" fill-opacity="1"></path></g><g><title>Pfad 19</title><path d="M87.22128,0.51214v0l-3.8868,18.74199v0h6.54822v0l3.88493,-18.74199v0z" fill="#1b465d" fill-opacity="1"></path></g><g><title>Gruppe 5</title><g><title>Pfad 20</title><path d="M101.31696,8.10226c0.46808,-1.79978 1.98047,-3.70589 4.78574,-3.70589c2.37421,0 3.16489,1.69165 3.16489,3.70589zM111.82285,14.07422c-1.7998,0.8654 -4.13879,1.29433 -5.86563,1.29433c-3.95773,0 -4.96326,-1.58172 -5.03583,-3.59597h13.27567c0.24783,-1.11507 0.46628,-2.76936 0.46628,-3.52484c0,-5.68457 -3.7059,-8.16511 -8.63177,-8.16511c-8.34796,0 -11.2258,6.68792 -11.2258,11.04116c0,4.71284 3.3815,8.56242 9.6405,8.56242c1.87268,0 4.28247,-0.35995 6.54816,-1.04251z" fill="#1b465d" fill-opacity="1"></path></g></g><g><title>Pfad 21</title><path d="M118.86366,0.51214v0l-0.97171,4.74845v0h8.02161v0l-10.21674,9.10336v0l-0.21823,4.89018v0h15.57883v0l0.97171,-4.74844v0h-8.5625v0l10.28955,-9.09963v0l1.00714,-4.89392v0z" fill="#1b465d" fill-opacity="1"></path></g><g><title>Pfad 22</title><path d="M156.60179,8.46223c0,-4.7132 -3.3815,-8.38173 -9.74896,-8.38173c-7.3371,0 -12.08548,4.45957 -12.08548,11.04512c0,4.71104 2.80527,8.55883 9.74683,8.55883c7.0163,0 12.08762,-3.41527 12.08762,-11.22222M149.90993,8.39146c0,4.24116 -1.90613,6.76265 -4.92944,6.76265c-2.19138,0.03521 -3.52307,-1.65609 -3.52307,-4.17398c0,-2.98598 1.94348,-6.36569 5.07281,-6.36569c2.51608,0 3.3797,1.83175 3.3797,3.77702" fill="#1b465d" fill-opacity="1"></path></g><g><title>Pfad 23</title><path d="M157.46648,18.71556c2.01425,0.57622 5.0358,1.0091 7.87808,0.97174c4.85654,-0.07077 8.77866,-2.3742 8.77866,-7.01267c0,-4.71499 -8.0961,-4.5695 -8.0961,-6.65811c0,-1.29254 1.58533,-1.61908 3.02335,-1.61908c1.94131,0 3.52484,0.35996 5.18094,1.0443l1.36545,-4.24475c-2.33899,-0.75548 -4.60507,-1.11543 -6.22198,-1.11543c-4.35291,0 -9.46127,1.76278 -9.46127,6.15122c0,6.18823 7.73224,4.82097 7.73224,7.48256c0,1.54616 -2.59045,1.65609 -3.63113,1.65609c-1.7998,0 -3.59781,-0.35996 -5.25568,-1.07987z" fill="#1b465d" fill-opacity="1"></path></g><g><title>Pfad 24</title><path d="M198.84093,0.51263v0h-6.87115v0l-6.36713,11.8358v0h-0.07291v0l-1.68768,-11.8358v0h-6.58374v0l4.1348,18.67137c-0.75546,1.90611 -1.94168,3.09411 -3.77667,3.09411c-1.22174,0 -2.12451,-0.28739 -2.95038,-0.54101l0.0668,4.71104c1.22177,0.39911 2.76974,0.79284 5.07135,0.79284c4.13663,0 4.82852,-2.1935 6.73462,-5.50388z" fill="#1b465d" fill-opacity="1"></path></g><g><title>Pfad 25</title><path d="M197.42555,18.71556c2.01422,0.57622 5.03546,1.0091 7.87775,0.97174c4.85687,-0.07077 8.77905,-2.3742 8.77905,-7.01267c0,-4.71499 -8.09436,-4.5695 -8.09436,-6.65811c0,-1.29254 1.5835,-1.61908 3.01941,-1.61908c1.94525,0 3.52692,0.35996 5.18304,1.0443l1.36511,-4.24475c-2.33685,-0.75548 -4.60291,-1.11543 -6.22162,-1.11543c-4.35327,0 -9.46338,1.76278 -9.46338,6.15122c0,6.18823 7.73615,4.82097 7.73615,7.48256c0,1.54616 -2.59045,1.65609 -3.633,1.65609c-1.79797,0 -3.59772,-0.35996 -5.25385,-1.07987z" fill="#1b465d" fill-opacity="1"></path></g><g><title>Pfad 26</title><path d="M218.109,5.04624v0h3.4541v0l-1.11505,5.25205c-0.43109,1.97904 -0.5766,2.91341 -0.5766,3.84959c0,3.92036 2.62817,5.53908 5.93677,5.53908c1.29431,0 2.66119,-0.14334 4.03027,-0.35816l0.71814,-4.28211c-0.68256,0.25183 -1.40466,0.53922 -2.08722,0.53922c-1.29254,0 -2.12238,-0.82625 -2.12238,-2.08537c0,-0.89881 0.2536,-1.83499 0.54108,-3.2396l1.11505,-5.21469v0h4.71136v0l0.79254,-4.53394v0h-14.60522v0z" fill="#1b465d" fill-opacity="1"></path></g><g><title>Pfad 27</title><path d="M239.5429,8.10227c0.46631,-1.79978 1.9787,-3.70589 4.78217,-3.70589c2.37598,0 3.16846,1.69165 3.16846,3.70589zM250.04699,14.07424c-1.79797,0.8654 -4.1366,1.29433 -5.8656,1.29433c-3.95416,0 -4.96283,-1.58172 -5.034,-3.59597h13.27203c0.25354,-1.11507 0.46991,-2.76936 0.46991,-3.52484c0,-5.68457 -3.70416,-8.16511 -8.63538,-8.16511c-8.34406,0 -11.22186,6.68792 -11.22186,11.04116c0,4.71284 3.38116,8.56242 9.64044,8.56242c1.87061,0 4.28217,-0.35995 6.54828,-1.04251z" fill="#1b465d" fill-opacity="1"></path></g><g><title>Pfad 28</title><path d="M253.74358,19.25477v0h6.47565v0l1.83319,-8.63499c0.43469,-2.01425 1.15277,-5.14392 3.84955,-5.14392c1.51276,0 2.08716,0.72171 2.08716,1.94527c0,0.75548 -0.14185,1.76242 -0.35992,2.73236l-1.87268,9.10128v0h6.47919v0l1.83533,-8.63499c0.42896,-2.01425 1.14886,-5.14392 3.84564,-5.14392c1.5127,0 2.08893,0.72171 2.08893,1.94527c0,0.75548 -0.14545,1.76242 -0.35986,2.73236l-1.87061,9.10128v0h6.47522v0l1.94171,-9.39047c0.28705,-1.3299 0.43073,-2.98598 0.43073,-4.20955c0,-4.17003 -2.95044,-5.57249 -5.82831,-5.57249c-2.69495,0 -5.10834,1.43587 -6.69006,3.81007c-0.50323,-2.5513 -2.73413,-3.81007 -4.92548,-3.81007c-2.62964,0 -5.0376,1.43587 -6.62109,3.81007l-0.07074,0.03916v0l0.71808,-3.4185v0h-5.75751c-0.17712,1.69165 -0.46814,3.27301 -0.78888,4.8921z" fill="#1b465d" fill-opacity="1"></path></g><g><title>Pfad 29</title><path d="M284.05209,26.11868c0.50366,0.28739 1.94135,0.64914 2.55487,0.64914c4.35144,0 5.28766,-3.3833 5.82654,-5.97196l4.3194,-20.36086v0h-3.38507v0l-4.13666,19.46205c-0.60956,2.84049 -1.29254,3.92036 -3.05493,3.92036c-0.50543,0 -1.04425,-0.14549 -1.51056,-0.36175z" fill="#1b465d" fill-opacity="1"></path></g><g><title>Pfad 30</title><path d="M311.7755,18.45653c-1.76245,0.43252 -3.59552,0.75332 -5.43091,0.75332c-4.46137,0 -8.45612,-1.79798 -8.45612,-8.27144c0,-5.07279 3.56219,-10.93842 10.03784,-10.93842c4.42364,0 6.90814,2.66303 6.90814,7.01627c0,1.22536 -0.14551,2.26607 -0.32477,3.34594h-12.91351c-0.07293,0.39516 -0.10809,0.75512 -0.10809,1.15064c0,3.84959 2.37415,4.96466 5.64716,4.96466c1.69165,0 3.52521,-0.43252 5.18134,-1.11507zM311.34485,7.84251c0.07257,-0.53706 0.10632,-0.97173 0.10632,-1.40246c0,-2.15615 -1.3299,-3.7041 -3.883,-3.7041c-2.77148,0 -4.89209,2.40977 -5.61206,5.10656z" fill="#1b465d" fill-opacity="1"></path></g><g><title>Pfad 31</title><path d="M315.64847,18.77989v0h3.3797v0l1.94312,-9.24534c0.47021,-2.26607 2.51788,-6.79821 6.69183,-6.79821c2.08722,0 3.34601,1.43803 3.34601,3.34414c0,0.39732 -0.07257,1.11543 -0.17889,1.72721l-2.26788,10.97219v0h3.38287v0l2.01465,-9.67606c0.21625,-1.0443 0.43073,-2.26607 0.43073,-3.34594c0,-3.88695 -2.5553,-5.7575 -6.11566,-5.7575c-3.20221,0 -5.18091,1.62088 -6.25897,3.34773h-0.07294v0l0.5766,-2.91701v0h-3.16711c-0.14185,1.08202 -0.35992,2.05161 -0.50366,2.80708z" fill="#1b465d" fill-opacity="1"></path></g><g><title>Pfad 32</title><path d="M348.80115,9.9656c-0.3952,3.09591 -2.5531,6.51262 -5.97205,6.51262c-1.61865,0 -3.01929,-0.86325 -3.01929,-2.48233c0,-3.34594 3.84741,-4.03028 6.40082,-4.03028zM339.88055,4.28283c1.51093,-0.89917 3.6333,-1.54616 5.612,-1.54616c2.4823,0 4.2077,1.00515 4.2077,3.63117c0,0.43468 -0.10632,0.82804 -0.1792,1.188c-0.82629,-0.0352 -1.7251,-0.10813 -2.44495,-0.10813c-6.15088,0 -10.86597,1.47539 -10.86597,6.69008c0,3.45407 2.77155,5.07495 5.86389,5.07495c2.44672,0 4.82092,-1.29649 5.97198,-3.49143h0.0708l-0.60999,3.05855h3.12964c0.46625,-3.23781 1.22144,-6.65452 1.9079,-10.07122c0.17889,-0.8654 0.32257,-2.05161 0.32257,-2.87965c0,-4.38845 -3.56219,-5.82827 -7.26807,-5.82827c-1.33167,0 -3.48962,0.39516 -5.10651,0.93617z" fill="#1b465d" fill-opacity="1"></path></g><g><title>Pfad 33</title><path d="M9.27524,3.0413v0l0.02622,-0.11029v0l0.01688,-0.05963v0l0.02048,-0.06502v0l0.02227,-0.06718v0l0.01868,-0.06359v0l0.03557,-0.08191v0l0.02407,-0.05784v0l0.03916,-0.0934v0l0.06538,-0.12861c0.05963,-0.11567 0.0952,-0.17172 0.12861,-0.2274c0.17172,-0.27051 0.35816,-0.49251 0.56903,-0.6883c0.0837,-0.08011 0.17315,-0.15483 0.26655,-0.2238c0.28164,-0.21446 0.57083,-0.37325 0.87295,-0.48497c0.2723,-0.09879 0.50724,-0.15124 0.74219,-0.17531c0.08406,-0.00575 0.16776,-0.00934 0.24823,-0.00934h38.06373c1.40247,0 2.2905,1.13591 1.98084,2.53658l-0.39912,1.82205c-0.30787,1.40067 -1.69524,2.53658 -3.09806,2.53658h-25.62405v0l-6.19541,28.17177c-0.30967,1.40067 -1.6956,2.53622 -3.09627,2.53622h-9.90525c-1.40067,0 -2.28655,-1.13555 -1.97868,-2.53622l6.75331,-30.69146v0z" fill="#1b465d" fill-opacity="1"></path></g><g><title>Pfad 34</title><path d="M43.20273,44.79333v0l-0.02802,0.10992v0l-0.01473,0.06179v0l-0.02048,0.06502v0l-0.02227,0.06538v0l-0.02443,0.06718v0l-0.02982,0.07832v0l-0.02442,0.06143v0l-0.03916,0.08981v0l-0.06323,0.12861c-0.06359,0.11568 -0.0952,0.1753 -0.13256,0.22919c-0.16956,0.26871 -0.3578,0.49251 -0.56688,0.6883c-0.08406,0.07832 -0.17531,0.15304 -0.26656,0.22381c-0.28379,0.21446 -0.56903,0.37325 -0.87295,0.48676c-0.2723,0.0952 -0.50724,0.14944 -0.74434,0.17352c-0.08191,0.00575 -0.16597,0.00934 -0.24608,0.00934h-38.06588c-1.40246,0 -2.29014,-1.13591 -1.97868,-2.53837l0.39911,-1.81846c0.30966,-1.40426 1.69524,-2.54017 3.09771,-2.54017h25.62405v0l6.19577,-28.16997c0.30787,-1.40247 1.69524,-2.53837 3.09591,-2.53837h9.90561c1.40067,0 2.28655,1.13591 1.97868,2.53837l-6.7533,30.68966v0z" fill="#298043" fill-opacity="1"></path></g></g></g></svg>